<?xml version="1.0" encoding="utf-8"?>
<!-- Generator: Adobe Illustrator 22.1.0, SVG Export Plug-In . SVG Version: 6.00 Build 0)  -->
<svg version="1.1" id="Layer_1" xmlns="http://www.w3.org/2000/svg" xmlns:xlink="http://www.w3.org/1999/xlink" x="0px" y="0px"
	 viewBox="0 0 100 100" style="enable-background:new 0 0 100 100;" xml:space="preserve">
<path style="fill:#FFFFFF;" d="M50,79.4c-20.3,0-36.8-16.5-36.8-36.8S29.7,5.8,50,5.8s36.8,16.5,36.8,36.8S70.3,79.4,50,79.4z"/>
<path d="M50,0.4C26.7,0.4,7.8,19.3,7.8,42.6c0,18.3,11.6,33.8,27.9,39.7l6.2,7.7l7.7,9.6l7.7-9.6l5.9-7.3c16.8-5.5,29-21.4,29-40.1
	C92.2,19.3,73.3,0.4,50,0.4z M50,79.4c-20.3,0-36.8-16.5-36.8-36.8S29.7,5.8,50,5.8s36.8,16.5,36.8,36.8S70.3,79.4,50,79.4z"/>
<path style="fill:#B4A996;" d="M74.5,25.3c-4.7-2.8-10.4-2.6-14.9-0.1l-5.2-3l-1.9,3.3c-0.1-0.1-0.2-0.2-0.3-0.2l-3.8-2.5
	c-0.8-0.5-1.7-0.7-2.6-0.5c-0.9,0.2-1.7,0.7-2.2,1.5l0,0c-0.3,0-0.5,0-0.8,0.1l-4.1,1.1c-0.6,0.2-1.2,0.5-1.5,1
	c-1.3,0.4-2.3,1.4-2.6,2.8l-0.7,4.4c0,0.3-0.1,0.6,0,1l-4.3-0.5l-0.7,6c-4.7,2-8.3,6.5-8.9,11.9C19,59.6,24.9,67,33,68
	c8.1,1,15.6-4.8,16.5-13c0.7-5.5-1.8-10.6-5.9-13.7l0.8-6L41.5,35c0.1-0.3,0.2-0.4,0.2-0.7l0.7-4.4c0.1-0.6,0-1.2-0.2-1.8l0.9-0.2
	c0.3,0.5,0.7,1,1.2,1.3l3.8,2.5c0.2,0.2,0.5,0.3,0.7,0.4l-1.7,2.9l5.2,3c0,5.1,2.6,10.2,7.3,13c7.1,4.2,16.2,1.8,20.4-5.3
	C83.9,38.5,81.5,29.4,74.5,25.3z M44,54.1c-0.6,5.1-5.2,8.7-10.3,8.1s-8.7-5.2-8.1-10.3c0.6-5.1,5.2-8.7,10.3-8.1
	C41,44.5,44.6,49,44,54.1z M40,29.5l-0.6,4.4c0,0.3-0.2,0.6-0.5,0.7l-2.4-0.3c-0.2-0.2-0.3-0.6-0.3-0.9l0.7-4.4
	c0-0.3,0.2-0.6,0.5-0.7l0.1,0c0.6,0.5,1.4,0.7,2.3,0.4l0.1,0C40,28.9,40.1,29.2,40,29.5z M49.1,29.7l-3.8-2.5
	c-0.1-0.1-0.2-0.2-0.3-0.3c0.5-0.5,0.8-1.2,0.6-1.9c0-0.1,0-0.1,0-0.2c0.2-0.2,0.3-0.4,0.6-0.4l0.1,0c0.3-0.1,0.6,0,0.8,0.2l3.8,2.5
	c0.1,0.1,0.3,0.3,0.4,0.4l-1.5,2.4C49.6,29.8,49.3,29.8,49.1,29.7z M74.7,42.7c-2.6,4.4-8.3,5.8-12.7,3.3s-5.8-8.3-3.3-12.7
	S67,27.4,71.4,30C75.8,32.6,77.3,38.3,74.7,42.7z"/>
</svg>
