<?xml version="1.0" encoding="utf-8"?>
<!-- Generator: Adobe Illustrator 22.1.0, SVG Export Plug-In . SVG Version: 6.00 Build 0)  -->
<svg version="1.1" id="Layer_1" xmlns="http://www.w3.org/2000/svg" xmlns:xlink="http://www.w3.org/1999/xlink" x="0px" y="0px"
	 viewBox="0 0 100 100" style="enable-background:new 0 0 100 100;" xml:space="preserve">
<style type="text/css">
	.st0{fill:#FFFFFF;}
	.st1{fill:#999999;}
	.st2{fill:#003366;}
</style>
<path class="st0" d="M50,79.4c-20.3,0-36.8-16.5-36.8-36.8S29.7,5.8,50,5.8s36.8,16.5,36.8,36.8S70.3,79.4,50,79.4z"/>
<path class="st1" d="M50,0.4C26.7,0.4,7.8,19.3,7.8,42.6c0,18.3,11.6,33.8,27.9,39.7l6.2,7.7l7.7,9.6l7.7-9.6l5.9-7.3
	c16.8-5.5,29-21.4,29-40.1C92.2,19.3,73.3,0.4,50,0.4z M50,79.4c-20.3,0-36.8-16.5-36.8-36.8S29.7,5.8,50,5.8s36.8,16.5,36.8,36.8
	S70.3,79.4,50,79.4z"/>
<path class="st2" d="M25.8,23.4v41.3h19.3V50.2h9.7v14.5h19.3V23.4H25.8z M40.3,42.8h-9.7V28.3h9.7V42.8z M54.8,42.8h-9.7V28.3h9.7
	V42.8z M69.3,42.8h-9.7V28.3h9.7V42.8z"/>
</svg>
