<?xml version="1.0" encoding="utf-8"?>
<!-- Generator: Adobe Illustrator 22.1.0, SVG Export Plug-In . SVG Version: 6.00 Build 0)  -->
<svg version="1.1" id="Layer_1" xmlns="http://www.w3.org/2000/svg" xmlns:xlink="http://www.w3.org/1999/xlink" x="0px" y="0px"
	 viewBox="0 0 100 100" style="enable-background:new 0 0 100 100;" xml:space="preserve">
<path style="fill:#FFFFFF;" d="M50,79.4c-20.3,0-36.8-16.5-36.8-36.8S29.7,5.8,50,5.8s36.8,16.5,36.8,36.8S70.3,79.4,50,79.4z"/>
<path d="M50,0.4C26.7,0.4,7.8,19.3,7.8,42.6c0,18.3,11.6,33.8,27.9,39.7l6.2,7.7l7.7,9.6l7.7-9.6l5.9-7.3c16.8-5.5,29-21.4,29-40.1
	C92.2,19.3,73.3,0.4,50,0.4z M50,79.4c-20.3,0-36.8-16.5-36.8-36.8S29.7,5.8,50,5.8s36.8,16.5,36.8,36.8S70.3,79.4,50,79.4z"/>
<g>
	<path style="fill:#ED1B2E;" d="M31.8,18.9c10.8-9.2,14-2.3,14.9,5.5c0.7,7.1-3.4,6.7-7.8,9.1c-0.4,8.3,7.6,21,15.1,24.3
		c4.3-3,5.7-6.7,11.7-3c6.6,4.3,11.4,10.1-1.6,15.8C43.2,73.9,19.6,36.3,31.8,18.9z"/>
</g>
</svg>
